HIERARCHY
ROOT reference
{
  OFFSET 0 0 0
  CHANNELS 6 Xposition Yposition Zposition Zrotation Xrotation Yrotation
  JOINT Hips
  {
    OFFSET 8.1203 89.3817 12.9612
    CHANNELS 3 Zrotation Xrotation Yrotation
    JOINT RightUpLeg
    {
      OFFSET -9.1608 -1.55382 -0.12893
      CHANNELS 3 Zrotation Xrotation Yrotation
      JOINT RightLeg
      {
        OFFSET 0.06374 -41.8922 -0.177796
        CHANNELS 3 Zrotation Xrotation Yrotation
        JOINT RightFoot
        {
          OFFSET 0.813904 -38.7435 -0.562088
          CHANNELS 3 Zrotation Xrotation Yrotation
          End Site
          {
            OFFSET 0 -7.69 17.5
          }
        }
      }
    }
    JOINT LeftUpLeg
    {
      OFFSET 9.31092 -1.63604 -0.0839322
      CHANNELS 3 Zrotation Xrotation Yrotation
      JOINT LeftLeg
      {
        OFFSET 0.0822586 -41.8846 0.0179678
        CHANNELS 3 Zrotation Xrotation Yrotation
        JOINT LeftFoot
        {
          OFFSET -2.12103 -44.4135 0.320981
          CHANNELS 3 Zrotation Xrotation Yrotation
          End Site
          {
            OFFSET 0 -7.69 17.5
          }
        }
      }
    }
    JOINT Spine
    {
      OFFSET 0.00360605 14.3003 0.0451097
      CHANNELS 3 Zrotation Xrotation Yrotation
      JOINT Spine1
      {
        OFFSET -0.00655277 9.70852 0.00756624
        CHANNELS 3 Zrotation Xrotation Yrotation
        JOINT Spine2
        {
          OFFSET 0.0271615 10.1148 -0.0101208
          CHANNELS 3 Zrotation Xrotation Yrotation
          JOINT Spine3
          {
            OFFSET 0.0177035 9.71869 0.0161839
            CHANNELS 3 Zrotation Xrotation Yrotation
            JOINT Neck
            {
              OFFSET -0.0236965 10.3849 -0.121818
              CHANNELS 3 Zrotation Xrotation Yrotation
              JOINT Head
              {
                OFFSET -0.155156 9.41763 -0.00386886
                CHANNELS 3 Zrotation Xrotation Yrotation
                End Site
                {
                  OFFSET 0 15.95 0
                }
              }
            }
            JOINT RightShoulder
            {
              OFFSET -3.20078 6.92891 -0.0108278
              CHANNELS 3 Zrotation Xrotation Yrotation
              JOINT RightArm
              {
                OFFSET -12.7398 0.00570667 0.0152916
                CHANNELS 3 Zrotation Xrotation Yrotation
                JOINT RightForeArm
                {
                  OFFSET -26.5293 0.00103985 0.0518282
                  CHANNELS 3 Zrotation Xrotation Yrotation
                  JOINT RightHand
                  {
                    OFFSET -25.9797 -0.0368484 -0.00950436
                    CHANNELS 3 Zrotation Xrotation Yrotation
                    JOINT RightHandThumb1
                    {
                      OFFSET -2.48905 0.190105 3.12053
                      CHANNELS 3 Zrotation Xrotation Yrotation
                      JOINT RightHandThumb2
                      {
                        OFFSET -3.68274 0 0
                        CHANNELS 3 Zrotation Xrotation Yrotation
                        JOINT RightHandThumb3
                        {
                          OFFSET -2.55832 0 0
                          CHANNELS 3 Zrotation Xrotation Yrotation
                          End Site
                          {
                            OFFSET -2.194 0 0
                          }
                        }
                      }
                    }
                    JOINT RightInHandIndex
                    {
                      OFFSET -3.22368 0.508421 1.97842
                      CHANNELS 3 Zrotation Xrotation Yrotation
                      JOINT RightHandIndex1
                      {
                        OFFSET -5.21684 -0.091368 0.999158
                        CHANNELS 3 Zrotation Xrotation Yrotation
                        JOINT RightHandIndex2
                        {
                          OFFSET -3.61937 0 0
                          CHANNELS 3 Zrotation Xrotation Yrotation
                          JOINT RightHandIndex3
                          {
                            OFFSET -2.0521 0 0
                            CHANNELS 3 Zrotation Xrotation Yrotation
                            End Site
                            {
                              OFFSET -1.805 0 0
                            }
                          }
                        }
                      }
                    }
                    JOINT RightInHandMiddle
                    {
                      OFFSET -3.38211 0.517263 0.756737
                      CHANNELS 3 Zrotation Xrotation Yrotation
                      JOINT RightHandMiddle1
                      {
                        OFFSET -5.17411 -0.084 0.313895
                        CHANNELS 3 Zrotation Xrotation Yrotation
                        JOINT RightHandMiddle2
                        {
                          OFFSET -3.94947 0 0
                          CHANNELS 3 Zrotation Xrotation Yrotation
                          JOINT RightHandMiddle3
                          {
                            OFFSET -2.47579 0 0
                            CHANNELS 3 Zrotation Xrotation Yrotation
                            End Site
                            {
                              OFFSET -1.975 0 0
                            }
                          }
                        }
                      }
                    }
                    JOINT RightInHandRing
                    {
                      OFFSET -3.36516 0.537895 -0.128947
                      CHANNELS 3 Zrotation Xrotation Yrotation
                      JOINT RightHandRing1
                      {
                        OFFSET -4.63474 -0.022105 -0.478947
                        CHANNELS 3 Zrotation Xrotation Yrotation
                        JOINT RightHandRing2
                        {
                          OFFSET -3.44238 0 0
                          CHANNELS 3 Zrotation Xrotation Yrotation
                          JOINT RightHandRing3
                          {
                            OFFSET -2.3881 0 0
                            CHANNELS 3 Zrotation Xrotation Yrotation
                            End Site
                            {
                              OFFSET -1.857 0 0
                            }
                          }
                        }
                      }
                    }
                    JOINT RightInHandPinky
                    {
                      OFFSET -3.16105 0.469368 -1.20179
                      CHANNELS 3 Zrotation Xrotation Yrotation
                      JOINT RightHandPinky1
                      {
                        OFFSET -4.14105 -0.022105 -1.09053
                        CHANNELS 3 Zrotation Xrotation Yrotation
                        JOINT RightHandPinky2
                        {
                          OFFSET -2.75653 0 0
                          CHANNELS 3 Zrotation Xrotation Yrotation
                          JOINT RightHandPinky3
                          {
                            OFFSET -1.74189 0 0
                            CHANNELS 3 Zrotation Xrotation Yrotation
                            End Site
                            {
                              OFFSET -1.645 0 0
                            }
                          }
                        }
                      }
                    }
                  }
                }
              }
            }
            JOINT LeftShoulder
            {
              OFFSET 3.22441 6.9052 0.00586093
              CHANNELS 3 Zrotation Xrotation Yrotation
              JOINT LeftArm
              {
                OFFSET 12.8603 -0.110614 -0.0841838
                CHANNELS 3 Zrotation Xrotation Yrotation
                JOINT LeftForeArm
                {
                  OFFSET 26.469 -0.0456773 -0.084058
                  CHANNELS 3 Zrotation Xrotation Yrotation
                  JOINT LeftHand
                  {
                    OFFSET 25.9786 0.0106968 0.000806877
                    CHANNELS 3 Zrotation Xrotation Yrotation
                    JOINT LeftHandThumb1
                    {
                      OFFSET 2.48905 0.190105 3.12053
                      CHANNELS 3 Zrotation Xrotation Yrotation
                      JOINT LeftHandThumb2
                      {
                        OFFSET 3.68274 0 0
                        CHANNELS 3 Zrotation Xrotation Yrotation
                        JOINT LeftHandThumb3
                        {
                          OFFSET 2.55832 0 0
                          CHANNELS 3 Zrotation Xrotation Yrotation
                          End Site
                          {
                            OFFSET 2.194 0 0
                          }
                        }
                      }
                    }
                    JOINT LeftInHandIndex
                    {
                      OFFSET 3.22368 0.508421 1.97842
                      CHANNELS 3 Zrotation Xrotation Yrotation
                      JOINT LeftHandIndex1
                      {
                        OFFSET 5.21684 -0.091368 0.999158
                        CHANNELS 3 Zrotation Xrotation Yrotation
                        JOINT LeftHandIndex2
                        {
                          OFFSET 3.61937 0 0
                          CHANNELS 3 Zrotation Xrotation Yrotation
                          JOINT LeftHandIndex3
                          {
                            OFFSET 2.0521 0 0
                            CHANNELS 3 Zrotation Xrotation Yrotation
                            End Site
                            {
                              OFFSET 1.805 0 0
                            }
                          }
                        }
                      }
                    }
                    JOINT LeftInHandMiddle
                    {
                      OFFSET 3.38211 0.517263 0.756737
                      CHANNELS 3 Zrotation Xrotation Yrotation
                      JOINT LeftHandMiddle1
                      {
                        OFFSET 5.17411 -0.084 0.313895
                        CHANNELS 3 Zrotation Xrotation Yrotation
                        JOINT LeftHandMiddle2
                        {
                          OFFSET 3.94947 0 0
                          CHANNELS 3 Zrotation Xrotation Yrotation
                          JOINT LeftHandMiddle3
                          {
                            OFFSET 2.47579 0 0
                            CHANNELS 3 Zrotation Xrotation Yrotation
                            End Site
                            {
                              OFFSET 1.975 0 0
                            }
                          }
                        }
                      }
                    }
                    JOINT LeftInHandRing
                    {
                      OFFSET 3.36516 0.537895 -0.128947
                      CHANNELS 3 Zrotation Xrotation Yrotation
                      JOINT LeftHandRing1
                      {
                        OFFSET 4.63474 -0.022105 -0.478947
                        CHANNELS 3 Zrotation Xrotation Yrotation
                        JOINT LeftHandRing2
                        {
                          OFFSET 3.44238 0 0
                          CHANNELS 3 Zrotation Xrotation Yrotation
                          JOINT LeftHandRing3
                          {
                            OFFSET 2.3881 0 0
                            CHANNELS 3 Zrotation Xrotation Yrotation
                            End Site
                            {
                              OFFSET 1.857 0 0
                            }
                          }
                        }
                      }
                    }
                    JOINT LeftInHandPinky
                    {
                      OFFSET 3.16105 0.469368 -1.20179
                      CHANNELS 3 Zrotation Xrotation Yrotation
                      JOINT LeftHandPinky1
                      {
                        OFFSET 4.14105 -0.022105 -1.09053
                        CHANNELS 3 Zrotation Xrotation Yrotation
                        JOINT LeftHandPinky2
                        {
                          OFFSET 2.75653 0 0
                          CHANNELS 3 Zrotation Xrotation Yrotation
                          JOINT LeftHandPinky3
                          {
                            OFFSET 1.74189 0 0
                            CHANNELS 3 Zrotation Xrotation Yrotation
                            End Site
                            {
                              OFFSET 1.645 0 0
                            }
                          }
                        }
                      }
                    }
                  }
                }
              }
            }
          }
        }
      }
    }
  }
}
MOTION
Frames:	6
Frame Time:	0.00833333
0 0 0 0 0 -0 33.2406 -20.6761 -113.371 -15.9847 -54.4799 -8.75788 -3.86169 11.6686 18.8361 10.8387 0.716037 61.7835 20.2117 -39.9165 27.2637 -4.34732 0.221515 -5.55924 -13.7797 6.56081 -10.3568 2.32313 19.1929 7.39946 0.777192 5.06958 2.3674 1.14613 8.35358 4.34943 -1.39136 -0.166699 -0.237601 -1.40752 -0.169715 -0.234409 -26.2426 -3.3721 -4.08269 1.04622 -6.88392 21.4829 25.0482 23.5125 63.2578 -151.126 -74.6507 -143.341 9.51106 1.3382 -4.74852 28.184 10.7294 19.1592 -5.40525e-15 -3.18055e-15 -10 3.22962e-15 0 -10 -0 -9.54166e-15 -0 19.9818 0.871897 2.3964 24 -1.59028e-15 3.18055e-15 20 5.76476e-15 1.59028e-14 -0 -9.54166e-15 -0 20 -1.59028e-14 -0 24 -3.18055e-15 -6.36111e-15 20 -3.18055e-15 1.59028e-14 -0 -9.54166e-15 -0 19.9748 -1.02565 -2.81938 24 3.18055e-15 -3.18055e-15 20 -1.03368e-14 -0 -0 -9.54166e-15 -0 19.7815 -3.00948 -8.30515 24 -1.59028e-15 -6.36111e-15 20 3.97569e-15 -6.36111e-15 -28.2658 -8.70845 -14.1017 -4.97341 49.4441 -96.2664 3.9899 -48.811 0.666392 -2.56743 11.6891 2.74399 -28.184 10.7294 -19.1592 -1.61481e-15 0 10 -2.80409e-16 1.59028e-15 10 -6.36111e-15 3.18055e-15 -0 -19.9818 0.871897 -2.3964 -24 3.18055e-15 3.18055e-15 -20 -4.34841e-15 9.54166e-15 -6.36111e-15 3.18055e-15 -0 -20 3.18055e-15 -0 -24 -4.77083e-15 -1.90833e-14 -20 -3.37934e-15 6.36111e-15 -6.36111e-15 3.18055e-15 -0 -19.9748 -1.02565 2.81938 -24 4.77083e-15 6.36111e-15 -20 3.97569e-15 3.18055e-15 -6.36111e-15 3.18055e-15 -0 -19.7815 -3.00948 8.30515 -24 -6.36111e-15 -0 -20 -4.77083e-15 1.27222e-14 
0 0 0 0 0 -0 33.1717 -20.7365 -113.619 -15.7474 -54.5754 -8.43921 -3.85564 11.6984 18.821 10.841 0.808638 61.8572 20.4987 -39.7077 27.5102 -4.50494 0.191361 -5.33738 -13.8277 6.62192 -10.4263 2.22562 19.1889 7.493 0.756174 5.07142 2.38511 1.11091 8.35925 4.3774 -1.38578 -0.168596 -0.23413 -1.39931 -0.170122 -0.23131 -26.0803 -3.40138 -4.02226 0.898184 -6.88634 21.3387 25.3864 23.4949 63.2955 -152.217 -74.5454 -144.12 9.48068 1.54862 -4.74776 28.184 10.7294 19.1592 -2.6688e-15 3.18055e-15 -10 5.60818e-16 3.18055e-15 -10 4.77083e-15 9.54166e-15 -4.77083e-15 19.9818 0.871897 2.3964 24 -1.59028e-15 -3.18055e-15 20 6.95746e-16 6.36111e-15 4.77083e-15 9.54166e-15 -4.77083e-15 20 9.54166e-15 -3.18055e-15 24 -7.95139e-15 -3.18055e-15 20 -2.78299e-15 -6.36111e-15 4.77083e-15 9.54166e-15 -4.77083e-15 19.9748 -1.02565 -2.81938 24 3.97569e-15 -9.54166e-15 20 1.98785e-15 3.18055e-15 4.77083e-15 9.54166e-15 -4.77083e-15 19.7815 -3.00948 -8.30515 24 -5.56597e-15 1.59028e-14 20 2.38542e-15 -6.36111e-15 -28.2887 -8.66685 -14.1197 -5.04148 49.3992 -96.2044 3.89 -48.5989 0.604909 -2.73729 11.7227 2.86485 -28.184 10.7294 -19.1592 4.5302e-15 6.36111e-15 10 -1.53407e-14 0 10 -0 0 1.59028e-15 -19.9818 0.871897 -2.3964 -24 -7.95139e-15 2.22639e-14 -20 -9.93923e-17 3.18055e-15 -0 0 1.59028e-15 -20 -3.18055e-15 3.18055e-15 -24 0 6.36111e-15 -20 -2.38542e-15 -6.36111e-15 -0 0 1.59028e-15 -19.9748 -1.02565 2.81938 -24 -3.18055e-15 9.54166e-15 -20 1.98785e-15 1.27222e-14 -0 0 1.59028e-15 -19.7815 -3.00948 8.30515 -24 0 3.18055e-15 -20 -1.59028e-15 -3.18055e-15 
0 0 0 0 0 -0 33.0852 -20.8199 -113.901 -15.5133 -54.6702 -8.10265 -3.81211 11.7035 18.7593 10.8317 0.951343 61.9705 20.7176 -39.5093 27.7116 -4.61049 0.148807 -5.12027 -13.8727 6.67066 -10.4535 2.10462 19.184 7.60547 0.729917 5.07465 2.40624 1.06692 8.36783 4.41074 -1.3798 -0.169336 -0.230659 -1.39564 -0.170526 -0.22777 -26.0062 -3.41754 -3.95964 0.74895 -6.88313 21.186 25.7284 23.4641 63.3163 -153.477 -74.3808 -145.071 9.44581 1.77075 -4.74674 28.184 10.7294 19.1592 -1.05399e-15 3.18055e-15 -10 3.79044e-15 3.18055e-15 -10 -1.59028e-15 0 1.59028e-15 19.9818 0.871897 2.3964 24 0 -3.18055e-15 20 3.97569e-16 3.18055e-15 -1.59028e-15 0 1.59028e-15 20 -6.36111e-15 1.59028e-14 24 1.59028e-15 -0 20 -1.39149e-15 -3.18055e-15 -1.59028e-15 0 1.59028e-15 19.9748 -1.02565 -2.81938 24 -5.56597e-15 -0 20 4.37326e-15 3.18055e-15 -1.59028e-15 0 1.59028e-15 19.7815 -3.00948 -8.30515 24 -7.95139e-16 -1.59028e-14 20 -7.15625e-15 -3.18055e-15 -28.3063 -8.62648 -14.139 -5.11677 49.3538 -96.1393 3.82442 -48.3718 0.586703 -2.89152 11.6576 2.90339 -28.184 10.7294 -19.1592 -2.70262e-15 1.59028e-15 10 -8.35446e-15 1.59028e-15 10 4.77083e-15 -6.36111e-15 -0 -19.9818 0.871897 -2.3964 -24 1.59028e-15 9.54166e-15 -20 -4.96962e-16 1.27222e-14 4.77083e-15 -6.36111e-15 -0 -20 3.18055e-15 -0 -24 -4.77083e-15 -6.36111e-15 -20 -4.96962e-15 9.54166e-15 4.77083e-15 -6.36111e-15 -0 -19.9748 -1.02565 2.81938 -24 -3.18055e-15 9.54166e-15 -20 -1.98785e-15 1.27222e-14 4.77083e-15 -6.36111e-15 -0 -19.7815 -3.00948 8.30515 -24 3.18055e-15 6.36111e-15 -20 -2.38542e-15 -3.18055e-15 
0 0 0 0 0 -0 32.9898 -20.8972 -114.203 -15.2726 -54.7611 -7.75906 -3.57121 11.5318 18.2636 10.6983 1.391 62.4376 20.9011 -39.3091 27.8943 -4.66588 0.0991045 -4.95306 -13.9286 6.705 -10.4273 1.97892 19.179 7.71966 0.702544 5.07819 2.42735 1.02114 8.37671 4.44376 -1.37558 -0.170028 -0.223698 -1.39055 -0.170921 -0.220725 -25.912 -3.41177 -3.83543 0.606207 -6.86623 21.0525 26.0376 23.4149 63.3258 -154.891 -74.1498 -146.2 9.40375 1.99373 -4.74543 28.184 10.7294 19.1592 7.51323e-15 -3.18055e-15 -10 2.6688e-15 -3.18055e-15 -10 -3.53113e-31 -6.36111e-15 -3.18055e-15 19.9818 0.871897 2.3964 24 -4.77083e-15 -1.27222e-14 20 2.45996e-15 -3.18055e-15 -3.53113e-31 -6.36111e-15 -3.18055e-15 20 0 3.18055e-15 24 6.36111e-15 1.90833e-14 20 -7.95139e-16 1.27222e-14 -3.53113e-31 -6.36111e-15 -3.18055e-15 19.9748 -1.02565 -2.81938 24 -3.18055e-15 -0 20 1.59028e-15 -6.36111e-15 -3.53113e-31 -6.36111e-15 -3.18055e-15 19.7815 -3.00948 -8.30515 24 -6.36111e-15 3.18055e-15 20 6.36111e-15 1.59028e-14 -28.32 -8.58428 -14.1476 -5.22516 49.3059 -96.0421 3.72776 -48.072 0.520638 -3.01778 11.5849 2.94967 -28.184 10.7294 -19.1592 3.22962e-15 0 10 -2.63498e-15 -7.95139e-15 10 -5.56597e-15 -3.18055e-15 -3.18055e-15 -19.9818 0.871897 -2.3964 -24 0 9.54166e-15 -20 -3.08116e-15 3.18055e-15 -5.56597e-15 -3.18055e-15 -3.18055e-15 -20 -6.36111e-15 -3.18055e-15 -24 -6.36111e-15 -0 -20 0 -0 -5.56597e-15 -3.18055e-15 -3.18055e-15 -19.9748 -1.02565 2.81938 -24 1.59028e-15 -6.36111e-15 -20 3.97569e-16 6.36111e-15 -5.56597e-15 -3.18055e-15 -3.18055e-15 -19.7815 -3.00948 8.30515 -24 0 -1.27222e-14 -20 0 -3.18055e-15 
0 0 0 0 0 -0 32.8758 -20.9769 -114.534 -15.0396 -54.8586 -7.38942 -3.46087 11.5169 18.0928 10.6658 1.60458 62.6395 21.0736 -39.0886 28.0982 -4.69709 0.0362408 -4.85517 -14.0032 6.71264 -10.3454 1.83551 19.1738 7.83659 0.670921 5.08199 2.44758 0.968426 8.38753 4.47451 -1.37115 -0.170682 -0.215178 -1.38788 -0.171304 -0.212099 -25.8275 -3.38961 -3.68398 0.489314 -6.83961 20.9343 26.2965 23.3496 63.3388 -156.252 -73.873 -147.327 9.36823 2.17981 -4.73671 28.184 10.7294 19.1592 5.40525e-15 3.18055e-15 -10 -5.3376e-15 6.36111e-15 -10 4.77083e-15 9.54166e-15 -3.18055e-15 19.9818 0.871897 2.3964 24 -6.36111e-15 -6.36111e-15 20 4.77083e-15 -1.27222e-14 4.77083e-15 9.54166e-15 -3.18055e-15 20 -3.18055e-15 9.54166e-15 24 3.18055e-15 9.54166e-15 20 1.19271e-15 -1.27222e-14 4.77083e-15 9.54166e-15 -3.18055e-15 19.9748 -1.02565 -2.81938 24 -3.97569e-15 -3.18055e-15 20 0 -0 4.77083e-15 9.54166e-15 -3.18055e-15 19.7815 -3.00948 -8.30515 24 6.36111e-15 -9.54166e-15 20 -3.97569e-15 -0 -28.3212 -8.54787 -14.1445 -5.30199 49.265 -95.98 3.67091 -47.7528 0.4942 -3.1274 11.531 2.97987 -28.184 10.7294 -19.1592 -4.20613e-16 2.38542e-15 10 -1.69893e-14 4.77083e-15 10 1.59028e-15 -6.36111e-15 -3.18055e-15 -19.9818 0.871897 -2.3964 -24 -1.59028e-15 -0 -20 1.98785e-15 6.36111e-15 1.59028e-15 -6.36111e-15 -3.18055e-15 -20 3.18055e-15 1.27222e-14 -24 4.77083e-15 -3.18055e-15 -20 2.38542e-15 -9.54166e-15 1.59028e-15 -6.36111e-15 -3.18055e-15 -19.9748 -1.02565 2.81938 -24 3.18055e-15 6.36111e-15 -20 -1.98785e-15 -0 1.59028e-15 -6.36111e-15 -3.18055e-15 -19.7815 -3.00948 8.30515 -24 0 3.18055e-15 -20 0 9.54166e-15 
0 0 0 0 0 -0 32.7486 -21.0589 -114.881 -14.8239 -54.9679 -7.02199 -3.33133 11.5238 17.8785 10.6275 1.82456 62.8864 21.2427 -38.8403 28.3269 -4.7163 -0.0457901 -4.8258 -14.0967 6.7118 -10.2167 1.6838 19.1688 7.94231 0.636901 5.08668 2.46373 0.912106 8.39859 4.49752 -1.36908 -0.171307 -0.204487 -1.38716 -0.171668 -0.201289 -25.7635 -3.36008 -3.49387 0.380096 -6.81153 20.8289 26.5393 23.2796 63.3777 -157.383 -73.587 -148.26 9.34956 2.32224 -4.70695 28.184 10.7294 19.1592 5.60818e-16 3.18055e-15 -10 -6.32395e-15 1.90833e-14 -10 1.59028e-15 -1.59028e-14 3.18055e-15 19.9818 0.871897 2.3964 24 -6.36111e-15 -9.54166e-15 20 -5.13113e-15 -3.18055e-15 1.59028e-15 -1.59028e-14 3.18055e-15 20 0 -6.36111e-15 24 -7.95139e-15 -1.27222e-14 20 -3.77691e-15 3.18055e-15 1.59028e-15 -1.59028e-14 3.18055e-15 19.9748 -1.02565 -2.81938 24 0 -1.90833e-14 20 1.59028e-15 -1.90833e-14 1.59028e-15 -1.59028e-14 3.18055e-15 19.7815 -3.00948 -8.30515 24 -2.38542e-15 -0 20 -3.97569e-15 -2.22639e-14 -28.3151 -8.53026 -14.1316 -5.42324 49.2498 -95.8787 3.63326 -47.3558 0.461926 -3.21454 11.4892 3.00896 -28.184 10.7294 -19.1592 4.81061e-15 4.77083e-15 10 -6.45924e-15 0 10 -1.76556e-31 3.18055e-15 3.18055e-15 -19.9818 0.871897 -2.3964 -24 -4.77083e-15 1.27222e-14 -20 -3.37934e-15 1.59028e-14 -1.76556e-31 3.18055e-15 3.18055e-15 -20 -3.18055e-15 -3.18055e-15 -24 3.18055e-15 6.36111e-15 -20 -2.98177e-16 -3.18055e-15 -1.76556e-31 3.18055e-15 3.18055e-15 -19.9748 -1.02565 2.81938 -24 -3.18055e-15 -6.36111e-15 -20 -1.59028e-15 -3.18055e-15 -1.76556e-31 3.18055e-15 3.18055e-15 -19.7815 -3.00948 8.30515 -24 3.18055e-15 9.54166e-15 -20 -1.59028e-15 -3.18055e-15 
